<?xml version="1.0" standalone="no"?>
<!DOCTYPE svg PUBLIC "-//W3C//DTD SVG 20010904//EN"
 "http://www.w3.org/TR/2001/REC-SVG-20010904/DTD/svg10.dtd">
<svg version="1.0" xmlns="http://www.w3.org/2000/svg"
 width="512.000000pt" height="512.000000pt" viewBox="0 0 512.000000 512.000000"
 preserveAspectRatio="xMidYMid meet">
<metadata>
Created by potrace 1.14, written by Peter Selinger 2001-2017
</metadata>
<g transform="translate(0.000000,512.000000) scale(0.100000,-0.100000)"
fill="#000000" stroke="none">
<path d="M2455 5106 c-102 -32 -202 -111 -244 -194 -17 -33 -33 -47 -88 -73
-57 -28 -196 -112 -213 -129 -3 -3 -27 -23 -55 -44 -116 -91 -234 -225 -285
-325 -78 -153 -56 -297 51 -341 l29 -12 -42 -27 c-24 -15 -48 -30 -55 -34 -6
-4 -19 7 -32 28 l-20 35 -68 -39 c-237 -134 -523 -244 -697 -267 -35 -5 -57
-15 -74 -33 -22 -24 -24 -32 -20 -107 3 -65 10 -90 31 -127 72 -123 193 -158
392 -113 62 14 258 67 294 79 26 9 41 11 41 4 0 -12 -39 -65 -87 -120 -35 -39
-40 -61 -22 -101 17 -36 53 -46 149 -41 l84 5 -44 -44 -45 -45 -30 29 -30 29
-74 -70 -75 -69 28 -29 27 -28 -53 -44 c-29 -24 -56 -48 -59 -53 -4 -4 -19 6
-34 23 l-28 31 -36 -31 c-147 -122 -303 -228 -453 -308 -118 -63 -138 -81
-138 -122 0 -86 55 -170 137 -209 43 -20 58 -22 153 -16 58 3 141 13 185 21
44 9 91 19 105 21 26 5 125 33 148 41 16 7 5 -23 -49 -131 -46 -90 -85 -149
-124 -186 -77 -73 -77 -73 -71 -110 9 -57 37 -70 136 -65 47 2 105 8 130 14
25 5 57 12 73 15 15 2 37 8 49 12 20 6 20 4 -7 -42 -53 -92 -45 -86 -83 -62
-18 11 -34 19 -36 17 -1 -2 -35 -53 -76 -114 -187 -281 -416 -539 -593 -669
-76 -56 -229 -136 -260 -136 -9 0 -25 -12 -37 -27 -43 -55 -4 -197 76 -277 75
-75 199 -107 324 -84 25 5 58 11 74 14 93 16 263 93 346 156 42 32 51 35 46
18 -3 -11 -9 -30 -12 -41 -3 -12 -22 -48 -41 -81 -28 -48 -34 -66 -29 -94 9
-48 37 -64 105 -59 60 4 157 21 172 30 5 4 17 8 26 10 80 16 242 99 350 180
l72 55 -14 -39 c-7 -21 -26 -58 -41 -82 -33 -52 -38 -110 -11 -136 19 -20 113
-24 235 -11 l62 7 0 -49 0 -50 -40 0 -40 0 0 -85 c0 -96 15 -139 52 -149 30
-8 1162 -8 1183 0 30 12 45 60 45 149 l0 85 -40 0 -40 0 0 51 0 50 35 -5 c64
-10 215 -17 235 -11 28 9 53 61 45 93 -3 14 -15 38 -25 52 -21 29 -63 130 -54
130 2 0 17 -12 32 -26 85 -82 313 -199 431 -221 14 -2 28 -6 31 -8 7 -5 92
-16 140 -20 36 -2 66 13 79 42 17 36 15 45 -35 143 -26 50 -44 93 -41 96 3 3
27 -10 54 -29 177 -127 448 -200 595 -161 125 33 217 140 234 271 8 70 -8 95
-83 122 -135 50 -255 133 -408 283 -106 104 -213 228 -196 228 5 0 19 21 31
46 19 38 22 56 16 105 -14 141 -91 194 -299 205 -65 4 -115 11 -119 18 -4 6
-22 35 -40 65 -31 54 -31 54 -7 47 56 -17 163 -35 243 -41 69 -5 89 -4 109 10
52 34 44 104 -16 145 -52 36 -113 132 -190 300 -9 19 -15 35 -14 37 1 1 34 -7
72 -18 102 -29 267 -58 367 -66 104 -7 160 6 213 50 41 33 85 116 85 159 0 58
-15 74 -125 129 -59 29 -109 58 -113 63 -3 6 -7 40 -7 76 -3 125 -93 246 -216
290 -19 7 -42 25 -51 41 -43 74 -174 128 -338 139 l-25 2 26 9 c56 21 62 94
12 140 -26 24 -83 106 -83 120 0 4 41 -6 91 -22 120 -38 298 -77 378 -84 112
-10 213 44 264 139 28 53 32 205 6 231 -9 9 -60 25 -113 35 -100 20 -113 23
-232 64 -113 39 -264 109 -462 216 l-93 50 -17 -30 c-19 -34 -29 -36 -57 -14
-14 11 -16 18 -8 21 25 9 71 60 94 103 19 37 23 60 23 130 1 73 -3 93 -28 144
-57 120 -221 249 -429 338 -118 51 -176 99 -213 174 -42 85 -104 148 -190 190
-64 32 -84 37 -156 40 -46 1 -101 -3 -123 -10z m1245 -1987 c0 -15 -75 -16
-90 -2 -13 12 -8 13 37 11 29 -2 53 -6 53 -9z"/>
</g>
</svg>
